<svg width="24" height="28" viewBox="0 0 24 28" fill="none" xmlns="http://www.w3.org/2000/svg">
<path d="M8.92975 5.43625L9.73275 7.66625C10.6248 10.1413 12.5737 12.0903 15.0487 12.9823L17.2787 13.7853C17.4797 13.8583 17.4797 14.1433 17.2787 14.2153L15.0487 15.0183C12.5737 15.9103 10.6248 17.8593 9.73275 20.3343L8.92975 22.5643C8.85675 22.7653 8.57175 22.7653 8.49975 22.5643L7.69675 20.3343C6.80475 17.8593 4.85575 15.9103 2.38075 15.0183L0.15075 14.2153C-0.05025 14.1423 -0.05025 13.8573 0.15075 13.7853L2.38075 12.9823C4.85575 12.0903 6.80475 10.1413 7.69675 7.66625L8.49975 5.43625C8.57175 5.23425 8.85675 5.23425 8.92975 5.43625Z" fill="#1B1B1B"/>
<path d="M18.9678 0.07725L19.3748 1.20625C19.8268 2.45925 20.8138 3.44625 22.0668 3.89825L23.1958 4.30525C23.2978 4.34225 23.2978 4.48625 23.1958 4.52325L22.0668 4.93025C20.8138 5.38225 19.8268 6.36925 19.3748 7.62225L18.9678 8.75125C18.9308 8.85325 18.7868 8.85325 18.7498 8.75125L18.3428 7.62225C17.8908 6.36925 16.9038 5.38225 15.6508 4.93025L14.5218 4.52325C14.4198 4.48625 14.4198 4.34225 14.5218 4.30525L15.6508 3.89825C16.9038 3.44625 17.8908 2.45925 18.3428 1.20625L18.7498 0.07725C18.7868 -0.02575 18.9318 -0.02575 18.9678 0.07725Z" fill="#1B1B1B"/>
<path d="M18.9678 19.2503L19.3748 20.3793C19.8268 21.6323 20.8138 22.6193 22.0668 23.0713L23.1958 23.4783C23.2978 23.5153 23.2978 23.6593 23.1958 23.6963L22.0668 24.1033C20.8138 24.5553 19.8268 25.5423 19.3748 26.7953L18.9678 27.9243C18.9308 28.0263 18.7868 28.0263 18.7498 27.9243L18.3428 26.7953C17.8908 25.5423 16.9038 24.5553 15.6508 24.1033L14.5218 23.6963C14.4198 23.6593 14.4198 23.5153 14.5218 23.4783L15.6508 23.0713C16.9038 22.6193 17.8908 21.6323 18.3428 20.3793L18.7498 19.2503C18.7868 19.1483 18.9318 19.1483 18.9678 19.2503Z" fill="#1B1B1B"/>
</svg>
