<svg width="23" height="23" viewBox="0 0 23 23" fill="none" xmlns="http://www.w3.org/2000/svg">
<path d="M21.76 8.65734L19.0755 4.01062C19.0346 3.94397 18.9777 3.88865 18.9099 3.84972C18.842 3.81079 18.7656 3.7895 18.6874 3.78781H4.31238C4.23414 3.78917 4.15751 3.81032 4.08965 3.84928C4.02178 3.88824 3.96488 3.94375 3.92425 4.01062L1.23972 8.65734C1.10613 8.88947 1.03592 9.15264 1.03613 9.42046C1.03635 9.68828 1.10699 9.95134 1.24096 10.1832C1.37494 10.4152 1.56753 10.6077 1.79944 10.7417C2.03134 10.8757 2.2944 10.9463 2.56222 10.9466H6.06254C6.33036 10.9463 6.59341 10.8757 6.82532 10.7417C7.05722 10.6077 7.24982 10.4152 7.38379 10.1832C7.51777 9.95134 7.58841 9.68828 7.58862 9.42046C7.58884 9.15264 7.51863 8.88947 7.38503 8.65734L5.09222 4.67187H11.0291V16.1719H10.6913C9.74904 16.1696 8.81785 16.3748 7.96384 16.7729C7.10983 17.1711 6.35395 17.7523 5.74988 18.4755C5.6944 18.542 5.65933 18.6231 5.6489 18.7091C5.63848 18.7951 5.65313 18.8823 5.69111 18.9601C5.72909 19.038 5.78877 19.1032 5.86295 19.1479C5.93714 19.1926 6.02268 19.215 6.10925 19.2122H16.8905C16.9757 19.2116 17.059 19.187 17.1308 19.1413C17.2026 19.0955 17.2601 19.0304 17.2966 18.9534C17.3333 18.8763 17.3471 18.7902 17.3362 18.7055C17.3254 18.6207 17.2904 18.5409 17.2355 18.4755C16.6278 17.7492 15.8672 17.1661 15.008 16.7678C14.1489 16.3696 13.2123 16.1661 12.2653 16.1719H11.9275V4.67187H17.9075L15.6147 8.65734C15.4811 8.88947 15.4109 9.15264 15.4111 9.42046C15.4114 9.68828 15.482 9.95134 15.616 10.1832C15.7499 10.4152 15.9425 10.6077 16.1744 10.7417C16.4063 10.8757 16.6694 10.9463 16.9372 10.9466H20.4375C20.7054 10.9463 20.9684 10.8757 21.2003 10.7417C21.4322 10.6077 21.6248 10.4152 21.7588 10.1832C21.8928 9.95134 21.9634 9.68828 21.9636 9.42046C21.9638 9.15264 21.8936 8.88947 21.76 8.65734ZM15.78 18.3281H7.18738C8.17872 17.5134 9.4225 17.0688 10.7057 17.0703H12.2797C13.5569 17.0717 14.7941 17.5163 15.78 18.3281ZM6.60519 9.73547C6.55078 9.83119 6.47179 9.91064 6.37639 9.96561C6.28099 10.0206 6.17264 10.0491 6.06254 10.0481H2.56222C2.45226 10.0476 2.34436 10.0182 2.24928 9.963C2.1542 9.90775 2.07527 9.82854 2.02036 9.73326C1.96545 9.63799 1.93648 9.52998 1.93634 9.42002C1.9362 9.31005 1.9649 9.20197 2.01957 9.10656L4.31238 5.15344L6.60519 9.12453C6.65812 9.21764 6.68595 9.3229 6.68595 9.43C6.68595 9.5371 6.65812 9.64236 6.60519 9.73547ZM20.9802 9.73547C20.9258 9.83119 20.8468 9.91064 20.7514 9.96561C20.656 10.0206 20.5476 10.0491 20.4375 10.0481H16.9372C16.8273 10.0476 16.7194 10.0182 16.6243 9.963C16.5292 9.90775 16.4503 9.82854 16.3954 9.73326C16.3404 9.63799 16.3115 9.52998 16.3113 9.42002C16.3112 9.31005 16.3399 9.20197 16.3946 9.10656L18.6874 5.15344L20.9802 9.12453C21.0331 9.21764 21.0609 9.3229 21.0609 9.43C21.0609 9.5371 21.0331 9.64236 20.9802 9.73547Z" fill="black"/>
</svg>
