<svg width="20" height="19" viewBox="0 0 20 19" fill="none" xmlns="http://www.w3.org/2000/svg">
<g clip-path="url(#clip0_2092_715)">
<path d="M13.5634 11.1778L10.7748 9.19094V5.14372C10.7748 4.73677 10.4286 4.40784 10.0002 4.40784C9.57184 4.40784 9.22559 4.73677 9.22559 5.14372V9.55892C9.22559 9.7907 9.34023 10.0093 9.53543 10.1476L12.6338 12.3552C12.7732 12.4546 12.9359 12.5024 13.0978 12.5024C13.334 12.5024 13.5664 12.4016 13.7182 12.2073C13.9755 11.8827 13.9057 11.4214 13.5634 11.1778Z" fill="black"/>
<path d="M10 0C4.48566 0 0 4.26138 0 9.5C0 14.7386 4.48566 19 10 19C15.5143 19 20 14.7386 20 9.5C20 4.26138 15.5143 0 10 0ZM10 17.5283C5.34082 17.5283 1.54918 13.9262 1.54918 9.5C1.54918 5.07378 5.34082 1.47172 10 1.47172C14.66 1.47172 18.4508 5.07378 18.4508 9.5C18.4508 13.9262 14.6592 17.5283 10 17.5283Z" fill="black"/>
</g>
<defs>
<clipPath id="clip0_2092_715">
<rect width="20" height="19" fill="white"/>
</clipPath>
</defs>
</svg>
