<svg xmlns="http://www.w3.org/2000/svg" version="1.1" xmlns:xlink="http://www.w3.org/1999/xlink" width="512" height="512" x="0" y="0" viewBox="0 0 512 512" style="enable-background:new 0 0 512 512" xml:space="preserve"><g><g data-name="19"><path d="M10.009 511.992A10 10 0 0 1 .275 499.7l27.943-118.545a10.014 10.014 0 0 1 2.662-4.777L339.964 67.3a10 10 0 0 1 14.142 0l90.6 90.6a10 10 0 0 1 0 14.142L135.621 481.12a10.009 10.009 0 0 1-4.777 2.662L12.3 511.725a10.013 10.013 0 0 1-2.291.267zm37.023-123.481L23.451 488.549l100.037-23.582 300-300-76.453-76.459z" fill="#ffffff" opacity="1" data-original="#000000"></path><path d="M437.634 174.965a9.971 9.971 0 0 1-7.071-2.929l-90.6-90.6a10 10 0 0 1 0-14.143l45.8-45.8a73.437 73.437 0 0 1 103.734 0l1 1a73.436 73.436 0 0 1 0 103.736l-45.8 45.8a9.972 9.972 0 0 1-7.063 2.936zm-76.456-100.6 76.456 76.457 38.731-38.732a53.411 53.411 0 0 0 0-75.45l-1-1a53.411 53.411 0 0 0-75.451 0z" fill="#ffffff" opacity="1" data-original="#000000"></path></g></g></svg>