<svg width="14" height="14" viewBox="0 0 14 14" fill="none" xmlns="http://www.w3.org/2000/svg">
<path d="M2.7765 10.9725C2.7765 10.9725 2.82317 10.9725 2.84067 10.9725L4.54984 10.815C4.789 10.7917 5.01067 10.6867 5.17984 10.5175L11.6315 4.06585C11.9348 3.76252 12.104 3.36002 12.104 2.93418C12.104 2.50835 11.9348 2.10585 11.6315 1.80252L11.2173 1.38835C10.6107 0.781683 9.55484 0.781683 8.94817 1.38835L8.12567 2.21085L2.50234 7.83418C2.33317 8.00335 2.22817 8.22502 2.21067 8.46418L2.05317 10.1733C2.03567 10.3892 2.1115 10.5992 2.26317 10.7567C2.40317 10.8967 2.584 10.9725 2.7765 10.9725ZM10.0857 1.79085C10.2723 1.79085 10.459 1.86085 10.599 2.00668L11.0132 2.42085C11.1532 2.56085 11.229 2.74168 11.229 2.93418C11.229 3.12668 11.1532 3.31335 11.0132 3.44752L10.4998 3.96085L9.059 2.52002L9.57234 2.00668C9.71234 1.86668 9.89901 1.79085 10.0857 1.79085ZM3.07984 8.54585C3.07984 8.51085 3.09734 8.48168 3.12067 8.45835L8.43484 3.13835L9.87567 4.57918L4.5615 9.89335C4.5615 9.89335 4.50317 9.93418 4.474 9.93418L2.93984 10.0742L3.07984 8.54002V8.54585ZM13.2707 12.8333C13.2707 13.0725 13.0723 13.2708 12.8332 13.2708H1.1665C0.927337 13.2708 0.729004 13.0725 0.729004 12.8333C0.729004 12.5942 0.927337 12.3958 1.1665 12.3958H12.8332C13.0723 12.3958 13.2707 12.5942 13.2707 12.8333Z" fill="white"/>
</svg>
