<svg width="15" height="15" viewBox="0 0 15 15" fill="none" xmlns="http://www.w3.org/2000/svg">
<g clip-path="url(#clip0_2041_818)">
<mask id="mask0_2041_818" style="mask-type:luminance" maskUnits="userSpaceOnUse" x="0" y="0" width="15" height="15">
<path d="M15 0H0V15H15V0Z" fill="white"/>
</mask>
<g mask="url(#mask0_2041_818)">
<path d="M14.375 8.11206H0.625C0.279999 8.11206 0 7.83206 0 7.48706C0 7.14206 0.279999 6.86206 0.625 6.86206H14.375C14.72 6.86206 15 7.14206 15 7.48706C15 7.83206 14.72 8.11206 14.375 8.11206Z" fill="#CBCDD6"/>
<path d="M14.375 3.32031H0.625C0.279999 3.32031 0 3.04031 0 2.69531C0 2.35031 0.279999 2.07031 0.625 2.07031H14.375C14.72 2.07031 15 2.35031 15 2.69531C15 3.04031 14.72 3.32031 14.375 3.32031Z" fill="#CBCDD6"/>
<path d="M14.375 12.9036H0.625C0.279999 12.9036 0 12.6236 0 12.2786C0 11.9336 0.279999 11.6536 0.625 11.6536H14.375C14.72 11.6536 15 11.9336 15 12.2786C15 12.6236 14.72 12.9036 14.375 12.9036Z" fill="#CBCDD6"/>
</g>
</g>
<defs>
<clipPath id="clip0_2041_818">
<rect width="15" height="15" fill="white"/>
</clipPath>
</defs>
</svg>
