<svg width="120" height="28" viewBox="0 0 120 28" fill="none" xmlns="http://www.w3.org/2000/svg">
<path d="M13.6104 5.73338V27.3438H7.8105V5.73338H0V0.601403H21.4209V5.73338H13.6104Z" fill="black"/>
<path d="M36.0248 21.9713H27.4796L25.8557 27.3438H19.5531L28.5623 0.601403H35.7928L43.9899 27.3438H37.4167L36.0248 21.9713ZM34.7488 17.0398L32.0422 6.57534L28.9103 17.0398H34.7488Z" fill="black"/>
<path d="M66.7182 8.98096H60.9183V8.53993C60.9183 6.29469 59.217 5.01169 56.2784 5.01169C53.5331 5.01169 51.8705 6.05413 51.8705 7.73806C51.8705 8.86068 52.6438 9.62245 54.2291 10.0234L59.449 11.2663C62.3103 11.988 63.8956 12.7097 65.1329 13.9125C66.4475 15.1554 67.1049 16.8794 67.1049 19.0043C67.1049 24.5373 63.0063 27.9452 56.3171 27.9452C49.3572 27.9452 45.336 24.4972 45.2973 18.5232H51.0972C51.2132 21.5703 52.8758 22.9335 56.3944 22.9335C59.3717 22.9335 61.189 21.8109 61.189 19.9265C61.189 18.6034 60.261 17.6813 58.405 17.2001L53.7265 15.9973C50.9812 15.3157 49.2799 14.554 48.1199 13.5115C46.8053 12.3889 46.0706 10.4243 46.0706 8.25927C46.0706 3.0872 49.8986 0 56.4331 0C60.609 0 63.5476 1.28299 65.2102 3.80889C66.0609 5.13198 66.4862 6.57534 66.7182 8.98096Z" fill="black"/>
<path d="M83.2203 11.146L94.1241 27.3438H87.1643L79.3538 15.2356L76.9565 17.7614V27.3438H71.2726V0.601403H76.9565V10.4644L85.6563 0.601403H93.2735L83.2203 11.146Z" fill="black"/>
<path d="M112.035 21.9713H103.49L101.866 27.3438H95.5632L104.572 0.601403H111.803L120 27.3438H113.427L112.035 21.9713ZM110.759 17.0398L108.052 6.57534L104.92 17.0398H110.759Z" fill="black"/>
</svg>
