<svg width="20" height="20" viewBox="0 0 20 20" fill="none" xmlns="http://www.w3.org/2000/svg">
<g clip-path="url(#clip0_200_2)">
<path d="M18.125 8.75H11.25V1.875C11.25 1.18469 10.6903 0.625 10 0.625C9.30969 0.625 8.75 1.18469 8.75 1.875V8.75H1.875C1.18469 8.75 0.625 9.30969 0.625 10C0.625 10.6903 1.18469 11.25 1.875 11.25H8.75V18.125C8.75 18.8153 9.30969 19.375 10 19.375C10.6903 19.375 11.25 18.8153 11.25 18.125V11.25H18.125C18.8153 11.25 19.375 10.6903 19.375 10C19.375 9.30969 18.8153 8.75 18.125 8.75Z" fill="black"/>
</g>
<defs>
<clipPath id="clip0_200_2">
<rect width="20" height="20" fill="white"/>
</clipPath>
</defs>
</svg>
