<svg width="24" height="25" viewBox="0 0 24 25" fill="none" xmlns="http://www.w3.org/2000/svg">
<path d="M22.1012 11.0016L2.75289 1.17013C2.58649 1.08557 2.40377 1.04163 2.21862 1.04163C1.5456 1.04163 1 1.60996 1 2.31102V2.34766C1 2.51799 1.02005 2.68769 1.05971 2.85294L2.91568 10.5861C2.96637 10.7974 3.13782 10.9534 3.34554 10.9775L11.5031 11.9216C11.786 11.9543 12 12.2034 12 12.5C12 12.7965 11.786 13.0456 11.5031 13.0783L3.34554 14.0225C3.13782 14.0465 2.96637 14.2026 2.91568 14.4138L1.05971 22.1469C1.02005 22.3123 1 22.4819 1 22.6523V22.6889C1 23.39 1.5456 23.9583 2.21862 23.9583C2.40377 23.9583 2.58649 23.9143 2.75289 23.8298L22.1012 13.9983C22.6511 13.7189 23 13.1374 23 12.5C23 11.8626 22.6511 11.281 22.1012 11.0016Z" fill="white"/>
</svg>
