<svg width="16" height="16" viewBox="0 0 16 16" fill="none" xmlns="http://www.w3.org/2000/svg">
<path d="M10.64 11.352L6.86701 11.309C5.18001 11.309 3.81201 9.983 3.81201 8.353L3.85701 1.375M13.203 11.309C13.203 11.949 12.661 12.501 11.954 12.501C11.247 12.501 10.705 11.95 10.705 11.309C10.705 10.668 11.247 10.116 11.954 10.116C12.661 10.116 13.203 10.668 13.203 11.309Z" stroke="#CBCDD6" stroke-width="1.2"/>
<path d="M4.06689 4.90997L10.4729 4.92097" stroke="#CBCDD6" stroke-width="1.2" stroke-linecap="square"/>
<path d="M13.2031 5.15703C13.2031 5.79803 12.6611 6.34903 11.9541 6.34903C11.2471 6.34903 10.7051 5.79903 10.7051 5.15703C10.7051 4.51603 11.2471 3.96503 11.9541 3.96503C12.6611 3.96503 13.2031 4.51603 13.2031 5.15703Z" stroke="#CBCDD6" stroke-width="1.2"/>
</svg>
