<svg width="12" height="12" viewBox="0 0 12 12" fill="none" xmlns="http://www.w3.org/2000/svg">
<path d="M2.94375 3.45028H9.05628L8.59175 9.47535C8.57988 9.62869 8.52442 9.75735 8.46535 9.82868C8.40642 9.89975 8.36455 9.91829 8.30015 9.91829H3.69935C3.63481 9.91829 3.59321 9.89975 3.53415 9.82868C3.47508 9.75735 3.41948 9.62869 3.40775 9.47535L2.94375 3.45028ZM1.85908 2.58362C1.28135 2.58362 1.28135 3.45028 1.85908 3.45028H2.07428L2.54295 9.54148C2.56735 9.85322 2.67361 10.1467 2.86668 10.3811C3.06028 10.615 3.36321 10.785 3.69921 10.785H8.30002C8.63682 10.785 8.93895 10.615 9.13268 10.3811C9.32642 10.1467 9.43108 9.85322 9.45562 9.54148L9.92508 3.45028H10.1411C10.7189 3.45028 10.7189 2.58362 10.1411 2.58362H1.85908Z" fill="#7F7F7F"/>
<path d="M5.05902 1.20386C4.48049 1.20386 4.48049 2.07052 5.05902 2.07052H6.94089C7.18049 2.07052 7.37422 1.87679 7.37422 1.63692C7.37422 1.39732 7.18049 1.20386 6.94089 1.20386H5.05902Z" fill="#7F7F7F"/>
</svg>
